<mxfile host="app.diagrams.net" agent="Mozilla/5.0 (Windows NT 10.0; Win64; x64) AppleWebKit/537.36 (KHTML, like Gecko) Chrome/136.0.0.0 Safari/537.36" version="27.0.5">
  <diagram name="Página-1" id="0fjqNiFfAMWvhXcWqjYR">
    <mxGraphModel dx="1913" dy="443" grid="1" gridSize="10" guides="1" tooltips="1" connect="1" arrows="1" fold="1" page="1" pageScale="1" pageWidth="827" pageHeight="1169" math="0" shadow="0">
      <root>
        <mxCell id="0" />
        <mxCell id="1" parent="0" />
        <mxCell id="nd9-zBH6tOAqh9hvZZ1e-4" value="BD" style="shape=cylinder3;whiteSpace=wrap;html=1;boundedLbl=1;backgroundOutline=1;size=15;" vertex="1" parent="1">
          <mxGeometry x="550" y="320" width="40" height="60" as="geometry" />
        </mxCell>
        <mxCell id="nd9-zBH6tOAqh9hvZZ1e-5" value="" style="endArrow=none;html=1;rounded=0;" edge="1" parent="1">
          <mxGeometry width="50" height="50" relative="1" as="geometry">
            <mxPoint x="290" y="1100" as="sourcePoint" />
            <mxPoint x="290" y="400" as="targetPoint" />
          </mxGeometry>
        </mxCell>
        <mxCell id="nd9-zBH6tOAqh9hvZZ1e-6" value="" style="endArrow=none;html=1;rounded=0;" edge="1" parent="1">
          <mxGeometry width="50" height="50" relative="1" as="geometry">
            <mxPoint x="570" y="1110" as="sourcePoint" />
            <mxPoint x="570" y="400" as="targetPoint" />
          </mxGeometry>
        </mxCell>
        <mxCell id="nd9-zBH6tOAqh9hvZZ1e-9" value="" style="image;html=1;image=img/lib/clip_art/computers/Secure_System_128x128.png" vertex="1" parent="1">
          <mxGeometry x="700" y="300" width="80" height="80" as="geometry" />
        </mxCell>
        <mxCell id="nd9-zBH6tOAqh9hvZZ1e-10" value="IniciaSesión" style="text;html=1;align=center;verticalAlign=middle;whiteSpace=wrap;rounded=0;" vertex="1" parent="1">
          <mxGeometry x="50" y="530" width="85" height="30" as="geometry" />
        </mxCell>
        <mxCell id="nd9-zBH6tOAqh9hvZZ1e-11" value="" style="endArrow=classic;html=1;rounded=0;exitX=1;exitY=0.5;exitDx=0;exitDy=0;" edge="1" parent="1" source="nd9-zBH6tOAqh9hvZZ1e-10">
          <mxGeometry width="50" height="50" relative="1" as="geometry">
            <mxPoint x="280" y="560" as="sourcePoint" />
            <mxPoint x="290" y="545" as="targetPoint" />
          </mxGeometry>
        </mxCell>
        <mxCell id="nd9-zBH6tOAqh9hvZZ1e-16" style="edgeStyle=orthogonalEdgeStyle;rounded=0;orthogonalLoop=1;jettySize=auto;html=1;" edge="1" parent="1" source="nd9-zBH6tOAqh9hvZZ1e-12">
          <mxGeometry relative="1" as="geometry">
            <mxPoint x="570" y="570" as="targetPoint" />
          </mxGeometry>
        </mxCell>
        <mxCell id="nd9-zBH6tOAqh9hvZZ1e-12" value="ValidarDatosDeInicioDeSesion" style="text;html=1;align=center;verticalAlign=middle;whiteSpace=wrap;rounded=0;" vertex="1" parent="1">
          <mxGeometry x="290" y="555" width="180" height="30" as="geometry" />
        </mxCell>
        <mxCell id="nd9-zBH6tOAqh9hvZZ1e-18" value="DevuelveSesionIniciada" style="text;html=1;align=center;verticalAlign=middle;whiteSpace=wrap;rounded=0;" vertex="1" parent="1">
          <mxGeometry x="434" y="590" width="130" height="30" as="geometry" />
        </mxCell>
        <mxCell id="nd9-zBH6tOAqh9hvZZ1e-20" value="ConsultaEspectaculosDisponibles" style="text;html=1;align=center;verticalAlign=middle;whiteSpace=wrap;rounded=0;" vertex="1" parent="1">
          <mxGeometry x="60" y="630" width="180" height="30" as="geometry" />
        </mxCell>
        <mxCell id="nd9-zBH6tOAqh9hvZZ1e-22" value="" style="endArrow=none;dashed=1;html=1;rounded=0;entryX=0;entryY=0.5;entryDx=0;entryDy=0;" edge="1" parent="1" target="nd9-zBH6tOAqh9hvZZ1e-18">
          <mxGeometry width="50" height="50" relative="1" as="geometry">
            <mxPoint x="300" y="605" as="sourcePoint" />
            <mxPoint x="360" y="680" as="targetPoint" />
          </mxGeometry>
        </mxCell>
        <mxCell id="nd9-zBH6tOAqh9hvZZ1e-23" value="" style="endArrow=classic;html=1;rounded=0;exitX=1;exitY=0.5;exitDx=0;exitDy=0;" edge="1" parent="1" source="nd9-zBH6tOAqh9hvZZ1e-20">
          <mxGeometry width="50" height="50" relative="1" as="geometry">
            <mxPoint x="210" y="730" as="sourcePoint" />
            <mxPoint x="560" y="645" as="targetPoint" />
            <Array as="points">
              <mxPoint x="510" y="645" />
            </Array>
          </mxGeometry>
        </mxCell>
        <mxCell id="nd9-zBH6tOAqh9hvZZ1e-25" value="" style="endArrow=classic;html=1;rounded=0;" edge="1" parent="1">
          <mxGeometry width="50" height="50" relative="1" as="geometry">
            <mxPoint x="300" y="605" as="sourcePoint" />
            <mxPoint x="290" y="604.66" as="targetPoint" />
          </mxGeometry>
        </mxCell>
        <mxCell id="nd9-zBH6tOAqh9hvZZ1e-26" value="DevuelveEspectaculosDisponibles" style="text;html=1;align=center;verticalAlign=middle;whiteSpace=wrap;rounded=0;" vertex="1" parent="1">
          <mxGeometry x="450" y="690" width="60" height="30" as="geometry" />
        </mxCell>
        <mxCell id="nd9-zBH6tOAqh9hvZZ1e-29" value="" style="endArrow=none;dashed=1;html=1;rounded=0;entryX=0;entryY=0.5;entryDx=0;entryDy=0;" edge="1" parent="1">
          <mxGeometry width="50" height="50" relative="1" as="geometry">
            <mxPoint x="300" y="705" as="sourcePoint" />
            <mxPoint x="384" y="704.66" as="targetPoint" />
          </mxGeometry>
        </mxCell>
        <mxCell id="nd9-zBH6tOAqh9hvZZ1e-30" value="" style="endArrow=classic;html=1;rounded=0;" edge="1" parent="1">
          <mxGeometry width="50" height="50" relative="1" as="geometry">
            <mxPoint x="320" y="705" as="sourcePoint" />
            <mxPoint x="290" y="704.66" as="targetPoint" />
            <Array as="points" />
          </mxGeometry>
        </mxCell>
        <mxCell id="nd9-zBH6tOAqh9hvZZ1e-32" value="" style="endArrow=classic;html=1;rounded=0;exitX=1;exitY=0.5;exitDx=0;exitDy=0;" edge="1" parent="1">
          <mxGeometry width="50" height="50" relative="1" as="geometry">
            <mxPoint x="470" y="675" as="sourcePoint" />
            <mxPoint x="570" y="675" as="targetPoint" />
          </mxGeometry>
        </mxCell>
        <mxCell id="nd9-zBH6tOAqh9hvZZ1e-33" value="EligeUnEspectaculo" style="text;html=1;align=center;verticalAlign=middle;whiteSpace=wrap;rounded=0;" vertex="1" parent="1">
          <mxGeometry x="60" y="720" width="110" height="30" as="geometry" />
        </mxCell>
        <mxCell id="nd9-zBH6tOAqh9hvZZ1e-34" value="" style="endArrow=classic;html=1;rounded=0;exitX=1;exitY=0.5;exitDx=0;exitDy=0;" edge="1" parent="1" source="nd9-zBH6tOAqh9hvZZ1e-33">
          <mxGeometry width="50" height="50" relative="1" as="geometry">
            <mxPoint x="230" y="760" as="sourcePoint" />
            <mxPoint x="290" y="735" as="targetPoint" />
          </mxGeometry>
        </mxCell>
        <mxCell id="nd9-zBH6tOAqh9hvZZ1e-36" value="SeleccionarMedioDePago" style="text;html=1;align=center;verticalAlign=middle;whiteSpace=wrap;rounded=0;" vertex="1" parent="1">
          <mxGeometry x="60" y="840" width="140" height="30" as="geometry" />
        </mxCell>
        <mxCell id="nd9-zBH6tOAqh9hvZZ1e-37" value="" style="endArrow=classic;html=1;rounded=0;exitX=1;exitY=0.5;exitDx=0;exitDy=0;" edge="1" parent="1">
          <mxGeometry width="50" height="50" relative="1" as="geometry">
            <mxPoint x="200" y="854.66" as="sourcePoint" />
            <mxPoint x="290" y="855" as="targetPoint" />
          </mxGeometry>
        </mxCell>
        <mxCell id="nd9-zBH6tOAqh9hvZZ1e-38" value="ValidarDisponibilidadDelEspectaculo" style="text;html=1;align=center;verticalAlign=middle;whiteSpace=wrap;rounded=0;" vertex="1" parent="1">
          <mxGeometry x="290" y="760" width="196" height="30" as="geometry" />
        </mxCell>
        <mxCell id="nd9-zBH6tOAqh9hvZZ1e-39" value="" style="endArrow=classic;html=1;rounded=0;exitX=1;exitY=0.5;exitDx=0;exitDy=0;" edge="1" parent="1" source="nd9-zBH6tOAqh9hvZZ1e-38">
          <mxGeometry width="50" height="50" relative="1" as="geometry">
            <mxPoint x="500" y="830" as="sourcePoint" />
            <mxPoint x="570" y="775" as="targetPoint" />
          </mxGeometry>
        </mxCell>
        <mxCell id="nd9-zBH6tOAqh9hvZZ1e-40" value="DevolverMedioDePagoDisponibles" style="text;html=1;align=center;verticalAlign=middle;whiteSpace=wrap;rounded=0;" vertex="1" parent="1">
          <mxGeometry x="384" y="790" width="180" height="30" as="geometry" />
        </mxCell>
        <mxCell id="nd9-zBH6tOAqh9hvZZ1e-41" value="" style="endArrow=classic;html=1;rounded=0;" edge="1" parent="1">
          <mxGeometry width="50" height="50" relative="1" as="geometry">
            <mxPoint x="310" y="810" as="sourcePoint" />
            <mxPoint x="290" y="810" as="targetPoint" />
          </mxGeometry>
        </mxCell>
        <mxCell id="nd9-zBH6tOAqh9hvZZ1e-42" value="" style="endArrow=none;dashed=1;html=1;rounded=0;" edge="1" parent="1">
          <mxGeometry width="50" height="50" relative="1" as="geometry">
            <mxPoint x="300" y="810" as="sourcePoint" />
            <mxPoint x="380" y="810" as="targetPoint" />
          </mxGeometry>
        </mxCell>
        <mxCell id="nd9-zBH6tOAqh9hvZZ1e-43" value="IniciarPago" style="text;html=1;align=center;verticalAlign=middle;whiteSpace=wrap;rounded=0;" vertex="1" parent="1">
          <mxGeometry x="290" y="880" width="60" height="30" as="geometry" />
        </mxCell>
        <mxCell id="nd9-zBH6tOAqh9hvZZ1e-44" value="" style="endArrow=classic;html=1;rounded=0;exitX=1;exitY=0.5;exitDx=0;exitDy=0;" edge="1" parent="1" source="nd9-zBH6tOAqh9hvZZ1e-43">
          <mxGeometry width="50" height="50" relative="1" as="geometry">
            <mxPoint x="430" y="910" as="sourcePoint" />
            <mxPoint x="570" y="895" as="targetPoint" />
          </mxGeometry>
        </mxCell>
        <mxCell id="nd9-zBH6tOAqh9hvZZ1e-45" value="EnviarConfirmaciónDeRecepcionDePago" style="text;html=1;align=center;verticalAlign=middle;whiteSpace=wrap;rounded=0;" vertex="1" parent="1">
          <mxGeometry x="340" y="930" width="228" height="30" as="geometry" />
        </mxCell>
        <mxCell id="nd9-zBH6tOAqh9hvZZ1e-47" value="" style="endArrow=classic;html=1;rounded=0;" edge="1" parent="1">
          <mxGeometry width="50" height="50" relative="1" as="geometry">
            <mxPoint x="300" y="945" as="sourcePoint" />
            <mxPoint x="290" y="945" as="targetPoint" />
          </mxGeometry>
        </mxCell>
        <mxCell id="nd9-zBH6tOAqh9hvZZ1e-48" value="" style="endArrow=none;dashed=1;html=1;rounded=0;entryX=0;entryY=0.5;entryDx=0;entryDy=0;" edge="1" parent="1" target="nd9-zBH6tOAqh9hvZZ1e-45">
          <mxGeometry width="50" height="50" relative="1" as="geometry">
            <mxPoint x="300" y="944.66" as="sourcePoint" />
            <mxPoint x="380" y="944.66" as="targetPoint" />
          </mxGeometry>
        </mxCell>
        <mxCell id="nd9-zBH6tOAqh9hvZZ1e-53" style="edgeStyle=orthogonalEdgeStyle;rounded=0;orthogonalLoop=1;jettySize=auto;html=1;" edge="1" parent="1" source="nd9-zBH6tOAqh9hvZZ1e-50">
          <mxGeometry relative="1" as="geometry">
            <mxPoint x="570" y="985" as="targetPoint" />
          </mxGeometry>
        </mxCell>
        <mxCell id="nd9-zBH6tOAqh9hvZZ1e-50" value="CargarDatosDelTicket" style="text;html=1;align=center;verticalAlign=middle;whiteSpace=wrap;rounded=0;" vertex="1" parent="1">
          <mxGeometry x="284" y="970" width="130" height="30" as="geometry" />
        </mxCell>
        <mxCell id="nd9-zBH6tOAqh9hvZZ1e-54" value="EnviarTicketPorCorreo" style="text;html=1;align=center;verticalAlign=middle;whiteSpace=wrap;rounded=0;" vertex="1" parent="1">
          <mxGeometry x="439" y="1010" width="129" height="30" as="geometry" />
        </mxCell>
        <mxCell id="nd9-zBH6tOAqh9hvZZ1e-55" value="" style="endArrow=classic;html=1;rounded=0;" edge="1" parent="1">
          <mxGeometry width="50" height="50" relative="1" as="geometry">
            <mxPoint x="310" y="1030" as="sourcePoint" />
            <mxPoint x="290" y="1022.5" as="targetPoint" />
          </mxGeometry>
        </mxCell>
        <mxCell id="nd9-zBH6tOAqh9hvZZ1e-57" value="" style="shape=umlLifeline;perimeter=lifelinePerimeter;whiteSpace=wrap;html=1;container=1;dropTarget=0;collapsible=0;recursiveResize=0;outlineConnect=0;portConstraint=eastwest;newEdgeStyle={&quot;curved&quot;:0,&quot;rounded&quot;:0};participant=umlActor;" vertex="1" parent="1">
          <mxGeometry x="50" y="320" width="20" height="450" as="geometry" />
        </mxCell>
        <mxCell id="nd9-zBH6tOAqh9hvZZ1e-58" value=":Entrada" style="shape=umlLifeline;perimeter=lifelinePerimeter;whiteSpace=wrap;html=1;container=1;dropTarget=0;collapsible=0;recursiveResize=0;outlineConnect=0;portConstraint=eastwest;newEdgeStyle={&quot;curved&quot;:0,&quot;rounded&quot;:0};" vertex="1" parent="1">
          <mxGeometry x="240" y="330" width="100" height="300" as="geometry" />
        </mxCell>
        <mxCell id="nd9-zBH6tOAqh9hvZZ1e-56" value="" style="html=1;points=[[0,0,0,0,5],[0,1,0,0,-5],[1,0,0,0,5],[1,1,0,0,-5]];perimeter=orthogonalPerimeter;outlineConnect=0;targetShapes=umlLifeline;portConstraint=eastwest;newEdgeStyle={&quot;curved&quot;:0,&quot;rounded&quot;:0};" vertex="1" parent="1">
          <mxGeometry x="-10" y="520" width="10" height="80" as="geometry" />
        </mxCell>
      </root>
    </mxGraphModel>
  </diagram>
</mxfile>
